<svg aria-hidden="true" style="position: absolute; width: 0; height: 0; overflow: hidden;" version="1.1" xmlns="http://www.w3.org/2000/svg" xmlns:xlink="http://www.w3.org/1999/xlink">
<defs>
<symbol id="icon-Facebook" viewBox="0 0 18 32">
<path fill="#8dd83d" style="fill: var(--color1, #8dd83d)" d="M11.424 32v-14.597h5.189l0.777-5.689h-5.966v-3.632c0-1.647 0.484-2.769 2.986-2.769l3.19-0.001v-5.088c-0.552-0.069-2.446-0.224-4.649-0.224-4.6 0-7.749 2.651-7.749 7.52v4.195h-5.202v5.689h5.202v14.597h6.221z"></path>
</symbol>
<symbol id="icon-Twitter" viewBox="0 0 37 32">
<path fill="#8dd83d" style="fill: var(--color1, #8dd83d)" d="M36.304 0.592c-1.481 0.925-3.118 1.597-4.867 1.957-1.394-1.569-3.385-2.549-5.59-2.549-4.227 0-7.657 3.617-7.657 8.078 0 0.634 0.066 1.248 0.197 1.839-6.366-0.337-12.008-3.55-15.788-8.443-0.66 1.198-1.037 2.587-1.037 4.066 0 2.801 1.352 5.274 3.408 6.723-1.254-0.039-2.437-0.406-3.472-1.007v0.098c0 3.916 2.641 7.182 6.147 7.921-0.642 0.19-1.32 0.285-2.019 0.285-0.493 0-0.975-0.049-1.441-0.143 0.975 3.208 3.802 5.545 7.154 5.607-2.621 2.167-5.925 3.459-9.512 3.459-0.618 0-1.229-0.037-1.827-0.111 3.389 2.289 7.417 3.627 11.741 3.627 14.090 0 21.792-12.307 21.792-22.984 0-0.352-0.006-0.702-0.019-1.047 1.496-1.139 2.796-2.561 3.819-4.181-1.372 0.642-2.849 1.077-4.398 1.271 1.582-0.999 2.796-2.582 3.368-4.468z"></path>
</symbol>
<symbol id="icon-Instagram" viewBox="0 0 32 32">
<path fill="#8dd83d" style="fill: var(--color1, #8dd83d)" d="M28.196 0h-24.392c-2.101 0-3.804 1.698-3.804 3.795v24.41c0 2.096 1.703 3.795 3.804 3.795h24.392c2.101 0 3.804-1.699 3.804-3.795v-24.41c0-2.096-1.703-3.795-3.804-3.795zM23 4.999c0-0.552 0.448-0.999 0.999-0.999h3c0.553 0 1 0.448 1 0.999v3.001c0 0.552-0.448 0.999-1 0.999h-3c-0.552 0-0.999-0.448-0.999-0.999v-3.001zM16.037 9.898c3.399 0 6.154 2.749 6.154 6.139s-2.756 6.139-6.154 6.139c-3.398 0-6.153-2.748-6.153-6.139s2.755-6.139 6.153-6.139zM29 28c0 0.552-0.448 1-1 1h-24c-0.553 0-1-0.448-1-1v-15h4c-0.521 0.75-0.697 2.149-0.697 3.037 0 5.355 4.368 9.712 9.735 9.712s9.735-4.357 9.735-9.712c0-0.889-0.126-2.266-0.772-3.037h4v15z"></path>
</symbol>
<symbol id="icon-xbox-icon" viewBox="0 0 32 32">
<path fill="#fff" style="fill: var(--color2, #fff)" d="M7.016 2.715c-0.009 0.007-0.017 0.015-0.025 0.022-0.006 0.006-0.012 0.011-0.018 0.017 0.089-0.096 0.218-0.199 0.302-0.255 2.466-1.628 5.315-2.498 8.476-2.498 2.957 0 5.726 0.829 8.090 2.272 0.171 0.103 0.639 0.429 0.88 0.725v0.001c-2.281-2.554-8.985 2.926-8.985 2.926-2.319-1.816-4.452-3.053-6.039-3.493-1.327-0.369-2.245-0.061-2.681 0.284zM27.209 5.026l-0-0c-0.040-0.042-0.080-0.084-0.118-0.128-0.577-0.643-1.285-0.798-1.925-0.756-0.581 0.185-3.269 1.169-6.581 4.345 0 0 3.728 3.682 6.011 7.447 2.28 3.763 3.643 6.72 2.807 10.823-0.024-0.137-0.4-2.206-2.45-5.133-0.498-0.709-2.319-2.921-3.339-4.083-1.011-1.153-2.516-2.804-4.503-4.811-0.435-0.439-0.894-0.897-1.376-1.37 0 0-0.726 0.737-1.671 1.707v-0.001c-1.21 1.241-2.778 2.86-3.648 3.805-1.55 1.68-5.99 6.957-6.24 9.915 0 0-0.988-2.347 1.18-7.759 1.417-3.538 5.697-8.851 7.484-10.582 0 0-1.633-1.826-3.683-3.087l-0.012-0.004c0 0-0.023-0.019-0.060-0.042-0.986-0.597-2.062-1.057-3.098-1.118-1.058 0.076-1.728 0.862-1.728 0.862-2.643 2.863-4.261 6.71-4.261 10.944 0 8.836 7.052 16 15.752 16 4.617 0 8.771-2.022 11.653-5.237 0-0-0-0.001-0-0.002s-0-0.001-0-0.002c2.544-2.841 4.096-6.616 4.096-10.761 0-4.196-1.59-8.015-4.194-10.869-0.031-0.035-0.064-0.070-0.097-0.104zM27.404 26.76c-0.001 0.001-0.001 0.001-0.002 0.002 0-0.002 0.001-0.004 0.001-0.006 0 0.002 0 0.003 0.001 0.004z"></path>
</symbol>
<symbol id="icon-Shape" viewBox="0 0 32 32">
<path fill="#8dd83d" style="fill: var(--color1, #8dd83d)" d="M26.667 10.667c0 3.867-2 7.2-5.067 9.067 5.333 1.867 9.333 6.533 10.4 12.267h-2.667c-1.333-6.133-6.8-10.667-13.333-10.667s-12 4.533-13.333 10.667h-2.667c1.067-5.6 5.067-10.267 10.4-12.267-3.067-1.867-5.067-5.2-5.067-9.067 0-5.867 4.8-10.667 10.667-10.667s10.667 4.8 10.667 10.667zM16 2.667c-4.4 0-8 3.6-8 8s3.6 8 8 8c4.4 0 8-3.6 8-8s-3.6-8-8-8z"></path>
</symbol>
<symbol id="icon-xbox" viewBox="0 0 106 32">
<path fill="#8dd83d" style="fill: var(--color1, #8dd83d)" d="M68.717 15.466c0.065 0.046 0.137 0.095 0.214 0.147 0.938 0.637 2.681 1.821 2.53 4.743-0.145 2.817-2.051 4.768-5.098 5.217-1.281 0.189-2.327 0.193-9.283 0.187-0.355-0-0.642-0.286-0.642-0.637v-8.339c-0.574 0-1.047 0.003-1.44 0.006-1.75 0.013-1.889 0.014-2.078-0.354-0.188-0.365-0.027-0.58 0.442-1.206l0-0c0.089-0.118 0.188-0.252 0.299-0.403 0.203-0.279 0.315-0.278 1.674-0.269 0.299 0.002 0.658 0.005 1.091 0.005v-7.632c0-0.352 0.288-0.637 0.643-0.637 1.153 0 2.177-0.005 3.091-0.010 5.688-0.029 7.132-0.037 8.922 1.383 2.062 1.635 2.796 5.826-0.365 7.8zM61.476 14.564c3.852 0.016 4.227 0.017 5.353-0.492 1.093-0.494 1.623-1.414 1.578-2.733-0.043-1.204-0.665-2.039-1.799-2.414-0.62-0.205-1.249-0.32-1.818-0.334-1.435-0.033-5.693-0.040-5.903-0.006v5.972c1.007 0.001 1.861 0.004 2.59 0.007v0zM58.883 16.776v6.71c0.032 0.004 0.054 0.007 0.075 0.009 0.103 0.011 0.207 0.006 1.524 0.009 0.474 0.001 0.908 0.003 1.309 0.005 3.129 0.016 4.154 0.021 5.361-0.519 1.292-0.579 1.959-1.708 1.878-3.177-0.175-3.177-3.548-3.126-8.045-3.058-0.677 0.010-1.38 0.021-2.102 0.021z"></path>
<path fill="#8dd83d" style="fill: var(--color1, #8dd83d)" d="M73.428 10.683c3.72-7.093 14.937-6.374 17.098 2.078 1.596 6.238-1.313 13-8.45 13.401-8.712 0.493-11.962-9.162-8.649-15.478zM76.229 10.807c-3.138 4.179-1.738 13.066 5.363 13.066 5.195 0 7.734-5.072 6.629-10.124-1.405-6.418-8.79-7.204-11.992-2.942z"></path>
<path fill="#8dd83d" style="fill: var(--color1, #8dd83d)" d="M99.021 15.573c6.609-8.89 6.431-8.429 6.186-8.911-0.227-0.446-0.602-0.35-1.862-0.35-0.448 0-0.083-0.325-5.785 7.345-5.683-7.637-5.329-7.33-5.779-7.33-1.266 0-1.637-0.095-1.864 0.35-0.109 0.215-0.088 0.472 0.056 0.666l6.123 8.231c-7.322 9.891-7.077 9.337-6.832 9.818 0.227 0.445 0.599 0.349 1.867 0.349 0.204 0 0.396-0.096 0.517-0.259l5.91-7.946 5.904 7.932c0.247 0.332 0.491 0.259 1.808 0.259 0.242 0 0.464-0.135 0.573-0.349 0.248-0.485 0.461 0.033-6.824-9.805z"></path>
<path fill="#8dd83d" style="fill: var(--color1, #8dd83d)" d="M48.209 15.573c6.587-8.855 6.435-8.426 6.189-8.91-0.109-0.215-0.331-0.35-0.574-0.35-1.335 0-1.563-0.067-1.806 0.259l-5.273 7.086c-5.677-7.641-5.326-7.336-5.775-7.336-1.274 0-1.632-0.091-1.856 0.35-0.109 0.215-0.088 0.472 0.056 0.666l6.121 8.235c-7.326 9.888-7.081 9.333-6.835 9.815 0.227 0.444 0.596 0.349 1.87 0.349 0.448 0 0.013 0.417 6.424-8.201 6.417 8.622 5.981 8.201 6.428 8.201 0.032 0 1.31 0 1.298 0 0.561 0 0.847-0.661 0.476-1.066l-6.743-9.099z"></path>
<path fill="#8dd83d" style="fill: var(--color1, #8dd83d)" d="M9.694 2.493c1.685 0.204 3.762 0.953 6.174 2.225 0.152 0.080 0.339 0.083 0.496-0.001 2.377-1.272 4.441-2.025 6.134-2.237 0.52-0.065 0.632-0.769 0.155-0.988-4.085-1.881-8.774-2.004-13.118 0.014-0.212 0.098-0.332 0.324-0.296 0.553s0.222 0.406 0.455 0.434z"></path>
<path fill="#8dd83d" style="fill: var(--color1, #8dd83d)" d="M27.081 26.267c-0.028-0.201-0.793-5.003-10.683-13.109-0.192-0.157-0.468-0.159-0.662-0.006-8.711 6.896-11.814 13.491-10.391 14.707 3.364 2.877 6.582 4.104 10.762 4.104 4.542 0 7.421-1.511 10.595-3.949 0.612-0.471 0.39-1.687 0.383-1.721l-0.004-0.026z"></path>
<path fill="#8dd83d" style="fill: var(--color1, #8dd83d)" d="M27.166 4.633c-1.772-0.282-5.117 2.7-6.413 3.948-0.194 0.187-0.213 0.489-0.044 0.698 6.375 7.903 7.987 12.415 8.218 14.809 0.022 0.223 0.184 0.407 0.404 0.458 0.222 0.051 0.449-0.046 0.566-0.235 1.534-2.48 2.344-5.349 2.344-8.298 0-6.507-4.489-11.287-5.074-11.379z"></path>
<path fill="#8dd83d" style="fill: var(--color1, #8dd83d)" d="M11.479 8.582c-3.714-3.578-5.57-3.964-6.195-3.964-0.078 0-0.151 0.005-0.217 0.016-0.108 0.017-0.208 0.068-0.286 0.144-5.187 5.097-6.384 13.165-2.444 19.534 0.097 0.156 0.268 0.248 0.447 0.248 0.271 0 0.497-0.204 0.523-0.471 0.23-2.394 1.843-6.906 8.217-14.809 0.169-0.21 0.15-0.512-0.044-0.698z"></path>
<path fill="#79c422" style="fill: var(--color3, #79c422)" d="M6.268 23.644c-0.872 1.564-1.072 2.471-1.078 2.5-0.079 0.471-0.123 1.398 0.255 1.715 3.427 2.877 6.706 4.104 10.963 4.104 0.78 0 1.508-0.047 2.201-0.129-5.334-0.65-9.872-3.79-12.342-8.19z"></path>
<path fill="#79c422" style="fill: var(--color3, #79c422)" d="M4.269 16.004c0-3.922 1.456-7.511 3.868-10.29-1.493-0.949-2.362-1.097-2.755-1.097-0.079 0-0.154 0.005-0.221 0.016-0.11 0.017-0.212 0.068-0.292 0.144-5.284 5.097-6.504 13.165-2.49 19.534 0.099 0.156 0.273 0.248 0.456 0.248 0.276 0 0.506-0.204 0.532-0.471 0.101-1.028 0.463-2.448 1.355-4.358-0.294-1.196-0.454-2.443-0.454-3.727z"></path>
<path fill="#79c422" style="fill: var(--color3, #79c422)" d="M11.451 2.804c2.067-1.37 4.473-2.288 7.070-2.618-3.274-0.427-6.135 0.101-8.807 1.319-0.216 0.098-0.339 0.324-0.301 0.553 0.089 0.546 0.516 0.342 2.038 0.746z"></path>
</symbol>
</defs>
</svg>
